<svg xmlns="http://www.w3.org/2000/svg" width="512" height="512" viewBox="0 0 512 512">
  <path d="M510.7,222H449.5a79.2,79.2,0,0,0-47,15.6l-221,164.8V208.1a17.9,17.9,0,0,1,7-14.2l53.8-40.7v10a25.1,25.1,0,0,1-10,20.1L197.1,210a2.4,2.4,0,0,0-.9,1.8v63.4a1.4,1.4,0,0,0,2.2,1.1l74-55.4a73.3,73.3,0,0,0,29.4-58.7V42.9a1.4,1.4,0,0,0-2.2-1.2L139.9,161.2a48.6,48.6,0,0,0-19.6,38.9v66.4h0l-12.1-9.1L68.5,227.7a21.1,21.1,0,0,1-8.1-16.6V199.2l43.5,32.5a1.4,1.4,0,0,0,2.2-1V186.4A43,43,0,0,0,89,152.1L2.2,87.4A1.4,1.4,0,0,0,0,88.5V222.8a43.7,43.7,0,0,0,17.5,35.1l102.8,76.9v22.1L2.3,268.3A1.5,1.5,0,0,0,0,269.4v38.2a54.3,54.3,0,0,0,21.9,43.6L181.5,470.5l330-246.2a1.3,1.3,0,0,0-.8-2.3M274.2,242.9A106.3,106.3,0,0,1,336.6,222h52.9a1.3,1.3,0,0,1,.7,2.4L198.4,367.7a1.4,1.4,0,0,1-2.2-1.1V301.3l78-58.4" fill="#872937"/>
</svg>
